<?xml version="1.0" standalone="no"?>
<!DOCTYPE svg PUBLIC "-//W3C//DTD SVG 20010904//EN" "http://www.w3.org/TR/2001/REC-SVG-20010904/DTD/svg10.dtd">
<!-- Created using Krita: https://krita.org -->
<svg xmlns="http://www.w3.org/2000/svg" 
    xmlns:xlink="http://www.w3.org/1999/xlink"
    xmlns:krita="http://krita.org/namespaces/svg/krita"
    xmlns:sodipodi="http://sodipodi.sourceforge.net/DTD/sodipodi-0.dtd"
    width="61.44pt"
    height="61.44pt"
    viewBox="0 0 61.44 61.44">
<defs/>
<rect id="shape0" transform="translate(6.24, 23.28)" fill="#72dfc5" fill-rule="evenodd" stroke="#000000" stroke-width="0.96" stroke-linecap="square" stroke-linejoin="bevel" width="49.44" height="17.76" rx="3.6" ry="3.6"/><ellipse id="shape1" transform="translate(5.76, 12.72)" rx="8.28" ry="8.16" cx="8.28" cy="8.16" fill="#72dfc5" fill-rule="evenodd" stroke="#000000" stroke-width="0.96" stroke-linecap="square" stroke-linejoin="bevel"/><ellipse id="shape2" transform="translate(49.68, 16.08)" rx="5.4" ry="5.52" cx="5.4" cy="5.52" fill="#72dfc5" fill-rule="evenodd" stroke="#000000" stroke-width="0.96" stroke-linecap="square" stroke-linejoin="bevel"/><ellipse id="shape3" transform="translate(17.52, 7.2)" rx="11.52" ry="11.52" cx="11.52" cy="11.52" fill="#72dfc5" fill-rule="evenodd" stroke="#000000" stroke-width="0.96" stroke-linecap="square" stroke-linejoin="bevel"/><circle id="shape4" transform="translate(36.72, 36.24)" r="7.32" cx="7.32" cy="7.32" fill="#72dfc5" fill-rule="evenodd" stroke="#000000" stroke-width="0.96" stroke-linecap="square" stroke-linejoin="bevel"/><ellipse id="shape5" transform="translate(8.64, 34.32)" rx="7.92" ry="8.04" cx="7.92" cy="8.04" fill="#72dfc5" fill-rule="evenodd" stroke="#000000" stroke-width="0.96" stroke-linecap="square" stroke-linejoin="bevel"/><ellipse id="shape6" transform="translate(26.64, 36.96)" rx="9.48" ry="9.6" cx="9.48" cy="9.6" fill="#72dfc5" fill-rule="evenodd" stroke="#000000" stroke-width="0.96" stroke-linecap="square" stroke-linejoin="bevel"/><ellipse id="shape7" transform="translate(52.56, 31.92)" rx="3.48" ry="3.48" cx="3.48" cy="3.48" fill="#72dfc5" fill-rule="evenodd" stroke="#000000" stroke-width="0.96" stroke-linecap="square" stroke-linejoin="bevel"/><ellipse id="shape8" transform="translate(2.64, 30.24)" rx="3.72" ry="3.6" cx="3.72" cy="3.6" fill="#72dfc5" fill-rule="evenodd" stroke="#000000" stroke-width="0.96" stroke-linecap="square" stroke-linejoin="bevel"/><circle id="shape9" transform="translate(37.92, 9.12)" r="9" cx="9" cy="9" fill="#72dfc5" fill-rule="evenodd" stroke="#000000" stroke-width="0.96" stroke-linecap="square" stroke-linejoin="bevel"/><path id="shape10" transform="translate(6.74999960238349, 12.8696476793986)" fill="#72dfc5" fill-rule="evenodd" d="M13.4096 1.08L9.62965 1.8L0.54 10.8004L0.18 13.5904L0 18.8104L0 23.5804L0.18 25.0204L1.53 27.0003L3.60035 28.8003L16.56 27.6303L19.89 27.5403L24.3904 27.9003L37.2603 37.1703L39.42 37.0803L43.74 27.9003L45.54 27.2703L47.79 26.1004L48.87 24.7504L48.5996 19.98L48.06 18.2704L48.2396 15.12L48.33 13.0504L50.3996 5.85L49.77 4.14035L46.98 3.06035L33.03 1.26035L31.3196 0L13.4096 1.08" sodipodi:nodetypes="cccccccccccccccccccccccccccc"/><path id="shape11" transform="translate(11.0696477854296, 23.3999986215961)" fill="none" stroke="#000000" stroke-width="0.96" stroke-linecap="square" stroke-linejoin="miter" stroke-miterlimit="2" d="M2.88035 0L0 14.1296" sodipodi:nodetypes="cc"/><path id="shape12" transform="translate(14.3996475892721, 23.1296470750215)" fill="none" stroke="#000000" stroke-width="0.96" stroke-linecap="square" stroke-linejoin="miter" stroke-miterlimit="2" d="M0 0L3.06 13.95" sodipodi:nodetypes="cc"/><path id="shape13" transform="translate(12.9599992365763, 30.3299982133765)" fill="none" stroke="#000000" stroke-width="0.96" stroke-linecap="square" stroke-linejoin="miter" stroke-miterlimit="2" d="M0 0L3.32965 0.269648" sodipodi:nodetypes="cc"/><path id="shape14" transform="translate(20.969998764738, 22.8596470909261)" fill="none" stroke="#000000" stroke-width="0.96" stroke-linecap="square" stroke-linejoin="miter" stroke-miterlimit="2" d="M1.16965 0L0 14.7604" sodipodi:nodetypes="cc"/><path id="shape15" transform="translate(21.3296471810525, 35.0999979323941)" fill="none" stroke="#000000" stroke-width="0.96" stroke-linecap="square" stroke-linejoin="miter" stroke-miterlimit="2" d="M0 2.24965L5.76035 0" sodipodi:nodetypes="cc"/><path id="shape16" transform="translate(26.6399984307402, 31.4099981497578)" fill="none" stroke="#000000" stroke-width="0.96" stroke-linecap="square" stroke-linejoin="miter" stroke-miterlimit="2" d="M0 3.51L0.27 0" sodipodi:nodetypes="cc"/><path id="shape17" transform="translate(21.3299987435318, 29.5199982610904)" fill="none" stroke="#000000" stroke-width="0.96" stroke-linecap="square" stroke-linejoin="miter" stroke-miterlimit="2" d="M4.85965 1.43965L0 0" sodipodi:nodetypes="cc"/><path id="shape18" transform="translate(21.9599987064209, 27.26964683115)" fill="none" stroke="#000000" stroke-width="0.96" stroke-linecap="square" stroke-linejoin="miter" stroke-miterlimit="2" d="M0 1.44035L4.49965 0" sodipodi:nodetypes="cc"/><path id="shape19" transform="translate(26.7299984254386, 24.2996470061013)" fill="none" stroke="#000000" stroke-width="0.96" stroke-linecap="square" stroke-linejoin="miter" stroke-miterlimit="2" d="M0 2.88035L0.359648 0" sodipodi:nodetypes="cc"/><path id="shape20" transform="translate(22.2303502529956, 21.8699987117225)" fill="none" stroke="#000000" stroke-width="0.96" stroke-linecap="square" stroke-linejoin="miter" stroke-miterlimit="2" d="M4.4993 2.06965L0 0" sodipodi:nodetypes="cc"/><path id="shape21" transform="translate(30.6899981921702, 24.4796469954981)" fill="none" stroke="#000000" stroke-width="0.96" stroke-linecap="square" stroke-linejoin="miter" stroke-miterlimit="2" d="M0.629648 0L0 9.27035" sodipodi:nodetypes="cc"/><path id="shape22" transform="translate(31.3199981550594, 34.7399979536003)" fill="none" stroke="#000000" stroke-width="0.96" stroke-linecap="square" stroke-linejoin="miter" stroke-miterlimit="2" d="M0 0L3.06 0.63" sodipodi:nodetypes="cc"/><path id="shape23" transform="translate(34.3799979748065, 32.849998064933)" fill="none" stroke="#000000" stroke-width="0.96" stroke-linecap="square" stroke-linejoin="miter" stroke-miterlimit="2" d="M0 2.25L1.62 0" sodipodi:nodetypes="cc"/><path id="shape24" transform="translate(35.9996463168993, 24.8396469742919)" fill="none" stroke="#000000" stroke-width="0.96" stroke-linecap="square" stroke-linejoin="miter" stroke-miterlimit="2" d="M0.270352 7.65035L0 0" sodipodi:nodetypes="cc"/><path id="shape25" transform="translate(33.7499980119174, 21.9599987064209)" fill="none" stroke="#000000" stroke-width="0.96" stroke-linecap="square" stroke-linejoin="miter" stroke-miterlimit="2" d="M2.06965 1.79965L0 0" sodipodi:nodetypes="cc"/><path id="shape26" transform="translate(31.4099981497578, 22.229647128037)" fill="none" stroke="#000000" stroke-width="0.96" stroke-linecap="square" stroke-linejoin="miter" stroke-miterlimit="2" d="M1.97965 0L0 1.26035" sodipodi:nodetypes="cc"/><path id="shape27" transform="translate(39.3299976832211, 23.2199986321992)" fill="none" stroke="#000000" stroke-width="0.96" stroke-linecap="square" stroke-linejoin="miter" stroke-miterlimit="2" d="M0.54 0L0 9.27" sodipodi:nodetypes="cc"/><path id="shape28" transform="translate(39.6903492244942, 33.2999980384252)" fill="none" stroke="#000000" stroke-width="0.96" stroke-linecap="square" stroke-linejoin="miter" stroke-miterlimit="2" d="M0 0L2.43 1.8" sodipodi:nodetypes="cc"/><path id="shape29" transform="translate(42.5703490548445, 33.1199980490283)" fill="none" stroke="#000000" stroke-width="0.96" stroke-linecap="square" stroke-linejoin="miter" stroke-miterlimit="2" d="M0 2.16L1.88965 0" sodipodi:nodetypes="cc"/><path id="shape30" transform="translate(44.549997375731, 22.9499986481039)" fill="none" stroke="#000000" stroke-width="0.96" stroke-linecap="square" stroke-linejoin="miter" stroke-miterlimit="2" d="M0 10.08L0.72 0" sodipodi:nodetypes="cc"/><path id="shape31" transform="translate(48.9592939909963, 23.3999986215961)" fill="none" stroke="#000000" stroke-width="0.96" stroke-linecap="square" stroke-linejoin="miter" stroke-miterlimit="2" d="M0.630703 0L0 11.6096" sodipodi:nodetypes="cc"/><path id="shape32" transform="translate(47.6096456329989, 22.8596470909261)" fill="none" stroke="#000000" stroke-width="0.96" stroke-linecap="square" stroke-linejoin="miter" stroke-miterlimit="2" d="M0 0L5.04 0.09" sodipodi:nodetypes="cc"/><path id="shape33" transform="translate(32.5353512620162, 41.7598238330726)" fill="#72dfc5" fill-rule="evenodd" stroke="#003c75" stroke-width="0.96" stroke-linecap="square" stroke-linejoin="bevel" d="M2.51947 0L1.88965 2.34018L0 3.55518L2.02482 4.27518L2.96965 6.61518L3.86982 4.27518L5.89465 3.37518L3.64465 2.20518L2.51947 0" sodipodi:nodetypes="ccccccccc"/><path id="shape34" transform="translate(13.2749998773973, 40.5899996251267)" fill="#72dfc5" fill-rule="evenodd" stroke="#003c75" stroke-width="0.96" stroke-linecap="square" stroke-linejoin="bevel" d="M1.485 0L1.39482 2.02482L0 2.7L1.53 3.06L2.385 4.725L2.655 2.97L4.32 1.98L2.56482 1.70982L1.485 0" sodipodi:nodetypes="ccccccccc"/><path id="shape35" transform="translate(26.3099981888131, 10.2298821082723)" fill="#72dfc5" fill-rule="evenodd" stroke="#003c75" stroke-width="0.96" stroke-linecap="square" stroke-linejoin="bevel" d="M1.40988 0L1.29 2.16012L0 3.03012L1.47012 3.03012L2.31 4.80012L2.52012 2.88012L3.89988 2.04L2.55 1.74012L1.40988 0" sodipodi:nodetypes="ccccccccc"/><path id="shape36" transform="translate(43.1701142156585, 12.5698819471862)" fill="#72dfc5" fill-rule="evenodd" stroke="#003c75" stroke-width="0.96" stroke-linecap="square" stroke-linejoin="bevel" d="M3.89977 0L2.45965 1.8L0 2.10012L2.30988 3.75012L2.22 6.24012L4.86 4.20012L7.10988 4.68012L4.85988 2.22012L3.89977 0" sodipodi:nodetypes="ccccccccc"/>
</svg>
